<svg width="49" height="50" viewBox="0 0 49 50" fill="none" xmlns="http://www.w3.org/2000/svg">
<path fill-rule="evenodd" clip-rule="evenodd" d="M13.9663 25.0709C13.0381 24.535 11.8945 24.535 10.9663 25.0709L5.01266 28.5082V27.2836L10.9663 23.8463C11.8945 23.3104 13.0381 23.3104 13.9663 23.8462L22.4472 28.7427C23.3754 29.2786 23.9472 30.269 23.9472 31.3408V38.4222L22.8866 39.0438V31.9531C22.8866 30.8813 22.3148 29.8909 21.3866 29.355L13.9663 25.0709ZM2.86782 28.5219L2.48535 28.7427C1.55715 29.2786 0.985352 30.269 0.985352 31.3408V41.1337C0.985352 42.2055 1.55715 43.1959 2.48535 43.7318L10.9663 48.6282C11.8945 49.1641 13.0381 49.1641 13.9663 48.6282L22.4472 43.7318C23.3754 43.1959 23.9472 42.2055 23.9472 41.1337V40.9311L22.8866 41.5483C22.8866 41.9846 22.6538 42.3878 22.276 42.606L13.9663 47.4036C13.0381 47.9395 11.8945 47.9395 10.9663 47.4036L3.54591 43.1194C2.61771 42.5835 2.04591 41.5932 2.04591 40.5214V31.1701C2.04591 30.5828 2.35922 30.0402 2.86782 29.7465V28.5219Z" fill="#1F3AFF"/>
<path fill-rule="evenodd" clip-rule="evenodd" d="M26.8523 28.5332L32.8598 25.0648C33.788 24.5289 34.9316 24.5289 35.8598 25.0648L43.2802 29.3489C44.2084 29.8848 44.7802 30.8752 44.7802 31.947V39.0063L45.8407 38.3947V31.3347C45.8407 30.2629 45.2689 29.2725 44.3407 28.7366L35.8598 23.8401C34.9316 23.3042 33.788 23.3042 32.8598 23.8401L26.8523 27.3086V28.5332ZM44.7802 41.472L45.8407 40.8439V41.1276C45.8407 42.1994 45.2689 43.1898 44.3407 43.7257L35.8598 48.6221C34.9316 49.158 33.788 49.158 32.8598 48.6221L24.0099 43.5126C23.31 43.1085 22.8789 42.3618 22.8789 41.5537L23.9395 40.94C23.9395 41.749 24.371 42.4965 25.0716 42.901L32.8598 47.3975C33.788 47.9334 34.9316 47.9334 35.8598 47.3975L44.1087 42.635C44.5242 42.3951 44.7802 41.9518 44.7802 41.472ZM23.9395 38.4336V31.1291C23.9395 30.5634 24.2413 30.0407 24.7311 29.7579V28.5332L24.3789 28.7366C23.4507 29.2725 22.8789 30.2629 22.8789 31.3347V39.0508L23.9395 38.4336Z" fill="#1F3AFF"/>
<path fill-rule="evenodd" clip-rule="evenodd" d="M24.9038 6.097C23.9756 5.5611 22.832 5.5611 21.9038 6.097L15.9128 9.55586V8.33123L21.9038 4.87237C22.832 4.33647 23.9756 4.33647 24.9038 4.87237L33.3847 9.76883C34.3129 10.3047 34.8847 11.2951 34.8847 12.3669V19.4021L33.8241 20.021V12.9792C33.8241 11.9074 33.2523 10.917 32.3241 10.3811L24.9038 6.097ZM34.8847 21.9849L33.8241 22.6037C33.8241 23.0219 33.601 23.4083 33.2388 23.6174L26.8455 27.3087V28.5333L33.3847 24.7579C34.3129 24.222 34.8847 23.2316 34.8847 22.1598V21.9849ZM24.7243 29.7579V28.5333C23.9072 29.0051 22.9004 29.0051 22.0832 28.5333L14.1707 23.965C13.436 23.5408 12.9834 22.7569 12.9834 21.9086L11.9229 22.5098C11.9229 23.365 12.3791 24.1553 13.1197 24.5829L22.0832 29.7579C22.9004 30.2297 23.9072 30.2297 24.7243 29.7579ZM13.735 10.8133C13.2699 11.0818 12.9834 11.578 12.9834 12.115V19.4434L11.9229 20.0533V12.3669C11.9229 11.2951 12.4946 10.3047 13.4229 9.76883L13.735 9.58862V10.8133Z" fill="#1F3AFF"/>
<path fill-rule="evenodd" clip-rule="evenodd" d="M16.2231 21.3128C15.2949 20.7769 14.1513 20.7769 13.2231 21.3128L5.80275 25.597C4.87454 26.1329 4.30275 27.1232 4.30275 28.195V36.7633C4.30275 37.8351 4.87454 38.8255 5.80275 39.3614L13.2231 43.6455C14.1513 44.1814 15.2949 44.1814 16.2231 43.6455L23.6434 39.3614C24.5716 38.8255 25.1434 37.8351 25.1434 36.7633V28.195C25.1434 27.1232 24.5716 26.1329 23.6434 25.597L16.2231 21.3128ZM26.204 27.5827C26.204 26.5109 25.6322 25.5205 24.704 24.9846L16.2231 20.0882C15.2949 19.5523 14.1513 19.5523 13.2231 20.0882L4.74219 24.9846C3.81398 25.5205 3.24219 26.5109 3.24219 27.5827V37.3756C3.24219 38.4474 3.81398 39.4378 4.74219 39.9737L13.2231 44.8702C14.1513 45.4061 15.2949 45.4061 16.2231 44.8702L24.704 39.9737C25.6322 39.4378 26.204 38.4474 26.204 37.3756V27.5827Z" fill="#FA3AFE"/>
<path fill-rule="evenodd" clip-rule="evenodd" d="M38.1147 21.307C37.1865 20.7711 36.0429 20.7711 35.1147 21.307L27.6943 25.5911C26.7661 26.127 26.1943 27.1174 26.1943 28.1892V36.7575C26.1943 37.8292 26.7661 38.8196 27.6943 39.3555L35.1147 43.6397C36.0429 44.1756 37.1865 44.1756 38.1147 43.6397L45.535 39.3555C46.4632 38.8196 47.035 37.8292 47.035 36.7575V28.1892C47.035 27.1174 46.4632 26.127 45.535 25.5911L38.1147 21.307ZM48.0956 27.5769C48.0956 26.5051 47.5238 25.5147 46.5956 24.9788L38.1147 20.0823C37.1865 19.5464 36.0429 19.5464 35.1147 20.0823L26.6338 24.9788C25.7056 25.5147 25.1338 26.5051 25.1338 27.5769V37.3698C25.1338 38.4416 25.7056 39.4319 26.6338 39.9678L35.1147 44.8643C36.0429 45.4002 37.1865 45.4002 38.1147 44.8643L46.5956 39.9678C47.5238 39.4319 48.0956 38.4416 48.0956 37.3698V27.5769Z" fill="#FA3AFE"/>
<path fill-rule="evenodd" clip-rule="evenodd" d="M27.1606 2.33895C26.2324 1.80305 25.0888 1.80305 24.1606 2.33895L16.7402 6.62308C15.812 7.15898 15.2402 8.14936 15.2402 9.22116V17.7894C15.2402 18.8612 15.812 19.8516 16.7402 20.3875L24.1606 24.6716C25.0888 25.2075 26.2324 25.2075 27.1606 24.6716L34.5809 20.3875C35.5091 19.8516 36.0809 18.8612 36.0809 17.7894V9.22116C36.0809 8.14936 35.5091 7.15898 34.5809 6.62308L27.1606 2.33895ZM37.1415 8.60885C37.1415 7.53705 36.5697 6.54667 35.6415 6.01077L27.1606 1.11432C26.2324 0.578418 25.0888 0.578417 24.1606 1.11432L15.6797 6.01077C14.7515 6.54667 14.1797 7.53705 14.1797 8.60884V18.4018C14.1797 19.4735 14.7515 20.4639 15.6797 20.9998L24.1606 25.8963C25.0888 26.4322 26.2324 26.4322 27.1606 25.8963L35.6415 20.9998C36.5697 20.4639 37.1415 19.4735 37.1415 18.4018V8.60885Z" fill="#FA3AFE"/>
</svg>
